<svg width="48" height="48" viewBox="0 0 48 48" fill="none" xmlns="http://www.w3.org/2000/svg">
<path d="M22.2 48C21.72 48 21.3 47.82 20.94 47.46C20.58 47.1 20.4 46.68 20.4 46.2C20.4 45.72 20.58 45.3 20.94 44.94C21.3 44.58 21.72 44.4 22.2 44.4V40.68C20.52 40.48 18.94 40.08 17.46 39.48C15.98 38.88 14.64 38.08 13.44 37.08L10.86 39.72C11.22 40.08 11.4 40.5 11.4 40.98C11.4 41.46 11.22 41.88 10.86 42.24C10.5 42.6 10.08 42.78 9.6 42.78C9.12 42.78 8.7 42.6 8.34 42.24L5.76 39.72C5.4 39.36 5.22 38.93 5.22 38.43C5.22 37.93 5.4 37.5 5.76 37.14C6.12 36.78 6.54 36.61 7.02 36.63C7.5 36.65 7.92 36.82 8.28 37.14L10.92 34.5C9.92 33.26 9.12 31.92 8.52 30.48C7.92 29.04 7.52 27.48 7.32 25.8H3.6C3.6 26.28 3.42 26.7 3.06 27.06C2.7 27.42 2.28 27.6 1.8 27.6C1.32 27.6 0.9 27.42 0.54 27.06C0.18 26.7 0 26.28 0 25.8V22.2C0 21.72 0.18 21.3 0.54 20.94C0.9 20.58 1.32 20.4 1.8 20.4C2.28 20.4 2.7 20.58 3.06 20.94C3.42 21.3 3.6 21.72 3.6 22.2H7.32C7.52 20.52 7.93 18.96 8.55 17.52C9.17 16.08 9.96 14.74 10.92 13.5L8.28 10.86C7.92 11.18 7.5 11.35 7.02 11.37C6.54 11.39 6.12 11.22 5.76 10.86C5.4 10.5 5.22 10.07 5.22 9.57C5.22 9.07 5.4 8.64 5.76 8.28L8.28 5.76C8.64 5.4 9.07 5.22 9.57 5.22C10.07 5.22 10.5 5.4 10.86 5.76C11.22 6.12 11.4 6.55 11.4 7.05C11.4 7.55 11.22 7.98 10.86 8.34L13.44 10.92C14.68 9.92 16.02 9.12 17.46 8.52C18.9 7.92 20.46 7.52 22.14 7.32V3.6C21.66 3.6 21.25 3.42 20.91 3.06C20.57 2.7 20.4 2.28 20.4 1.8C20.4 1.32 20.58 0.9 20.94 0.54C21.3 0.18 21.72 0 22.2 0H25.8C26.28 0 26.7 0.18 27.06 0.54C27.42 0.9 27.6 1.32 27.6 1.8C27.6 2.28 27.42 2.7 27.06 3.06C26.7 3.42 26.28 3.6 25.8 3.6V7.32C27.48 7.52 29.04 7.92 30.48 8.52C31.92 9.12 33.26 9.92 34.5 10.92L37.14 8.28C36.78 7.92 36.6 7.5 36.6 7.02C36.6 6.54 36.78 6.12 37.14 5.76C37.5 5.4 37.93 5.22 38.43 5.22C38.93 5.22 39.36 5.4 39.72 5.76L42.24 8.34C42.6 8.7 42.78 9.12 42.78 9.6C42.78 10.08 42.6 10.5 42.24 10.86C41.88 11.22 41.45 11.4 40.95 11.4C40.45 11.4 40.02 11.22 39.66 10.86L37.08 13.44C38.08 14.68 38.88 16.03 39.48 17.49C40.08 18.95 40.48 20.52 40.68 22.2H44.4C44.4 21.72 44.58 21.3 44.94 20.94C45.3 20.58 45.72 20.4 46.2 20.4C46.68 20.4 47.1 20.58 47.46 20.94C47.82 21.3 48 21.72 48 22.2V25.8C48 26.28 47.82 26.7 47.46 27.06C47.1 27.42 46.68 27.6 46.2 27.6C45.72 27.6 45.3 27.42 44.94 27.06C44.58 26.7 44.4 26.28 44.4 25.8H40.68C40.48 27.48 40.08 29.05 39.48 30.51C38.88 31.97 38.08 33.32 37.08 34.56L39.66 37.14C40.02 36.78 40.45 36.6 40.95 36.6C41.45 36.6 41.88 36.78 42.24 37.14C42.6 37.5 42.78 37.93 42.78 38.43C42.78 38.93 42.6 39.36 42.24 39.72L39.72 42.24C39.36 42.6 38.93 42.78 38.43 42.78C37.93 42.78 37.5 42.6 37.14 42.24C36.78 41.88 36.61 41.46 36.63 40.98C36.65 40.5 36.82 40.08 37.14 39.72L34.5 37.08C33.26 38.08 31.92 38.89 30.48 39.51C29.04 40.13 27.48 40.54 25.8 40.74V44.4C26.28 44.4 26.7 44.58 27.06 44.94C27.42 45.3 27.6 45.72 27.6 46.2C27.6 46.68 27.42 47.1 27.06 47.46C26.7 47.82 26.28 48 25.8 48H22.2ZM24 36C27.32 36 30.15 34.83 32.49 32.49C34.83 30.15 36 27.32 36 24C36 20.68 34.83 17.85 32.49 15.51C30.15 13.17 27.32 12 24 12C20.68 12 17.85 13.17 15.51 15.51C13.17 17.85 12 20.68 12 24C12 27.32 13.17 30.15 15.51 32.49C17.85 34.83 20.68 36 24 36ZM21.51 32.91C21.97 32.45 22.2 31.88 22.2 31.2C22.2 30.52 21.97 29.95 21.51 29.49C21.05 29.03 20.48 28.8 19.8 28.8C19.12 28.8 18.55 29.03 18.09 29.49C17.63 29.95 17.4 30.52 17.4 31.2C17.4 31.88 17.63 32.45 18.09 32.91C18.55 33.37 19.12 33.6 19.8 33.6C20.48 33.6 21.05 33.37 21.51 32.91ZM28.2 33.6C28.88 33.6 29.45 33.37 29.91 32.91C30.37 32.45 30.6 31.88 30.6 31.2C30.6 30.52 30.37 29.95 29.91 29.49C29.45 29.03 28.88 28.8 28.2 28.8C27.52 28.8 26.95 29.03 26.49 29.49C26.03 29.95 25.8 30.52 25.8 31.2C25.8 31.88 26.03 32.45 26.49 32.91C26.95 33.37 27.52 33.6 28.2 33.6ZM15.6 26.4C16.28 26.4 16.85 26.17 17.31 25.71C17.77 25.25 18 24.68 18 24C18 23.32 17.77 22.75 17.31 22.29C16.85 21.83 16.28 21.6 15.6 21.6C14.92 21.6 14.35 21.83 13.89 22.29C13.43 22.75 13.2 23.32 13.2 24C13.2 24.68 13.43 25.25 13.89 25.71C14.35 26.17 14.92 26.4 15.6 26.4ZM25.71 25.71C26.17 25.25 26.4 24.68 26.4 24C26.4 23.32 26.17 22.75 25.71 22.29C25.25 21.83 24.68 21.6 24 21.6C23.32 21.6 22.75 21.83 22.29 22.29C21.83 22.75 21.6 23.32 21.6 24C21.6 24.68 21.83 25.25 22.29 25.71C22.75 26.17 23.32 26.4 24 26.4C24.68 26.4 25.25 26.17 25.71 25.71ZM32.4 26.4C33.08 26.4 33.65 26.17 34.11 25.71C34.57 25.25 34.8 24.68 34.8 24C34.8 23.32 34.57 22.75 34.11 22.29C33.65 21.83 33.08 21.6 32.4 21.6C31.72 21.6 31.15 21.83 30.69 22.29C30.23 22.75 30 23.32 30 24C30 24.68 30.23 25.25 30.69 25.71C31.15 26.17 31.72 26.4 32.4 26.4ZM21.51 18.51C21.97 18.05 22.2 17.48 22.2 16.8C22.2 16.12 21.97 15.55 21.51 15.09C21.05 14.63 20.48 14.4 19.8 14.4C19.12 14.4 18.55 14.63 18.09 15.09C17.63 15.55 17.4 16.12 17.4 16.8C17.4 17.48 17.63 18.05 18.09 18.51C18.55 18.97 19.12 19.2 19.8 19.2C20.48 19.2 21.05 18.97 21.51 18.51ZM28.2 19.2C28.88 19.2 29.45 18.97 29.91 18.51C30.37 18.05 30.6 17.48 30.6 16.8C30.6 16.12 30.37 15.55 29.91 15.09C29.45 14.63 28.88 14.4 28.2 14.4C27.52 14.4 26.95 14.63 26.49 15.09C26.03 15.55 25.8 16.12 25.8 16.8C25.8 17.48 26.03 18.05 26.49 18.51C26.95 18.97 27.52 19.2 28.2 19.2Z" fill="#00779F"/>
<path fill-rule="evenodd" clip-rule="evenodd" d="M24 36C27.32 36 30.15 34.83 32.49 32.49C34.83 30.15 36 27.32 36 24C36 20.68 34.83 17.85 32.49 15.51C30.15 13.17 27.32 12 24 12C20.68 12 17.85 13.17 15.51 15.51C13.17 17.85 12 20.68 12 24C12 27.32 13.17 30.15 15.51 32.49C17.85 34.83 20.68 36 24 36ZM22.2 31.2C22.2 31.88 21.97 32.45 21.51 32.91C21.05 33.37 20.48 33.6 19.8 33.6C19.12 33.6 18.55 33.37 18.09 32.91C17.63 32.45 17.4 31.88 17.4 31.2C17.4 30.52 17.63 29.95 18.09 29.49C18.55 29.03 19.12 28.8 19.8 28.8C20.48 28.8 21.05 29.03 21.51 29.49C21.97 29.95 22.2 30.52 22.2 31.2ZM29.91 32.91C29.45 33.37 28.88 33.6 28.2 33.6C27.52 33.6 26.95 33.37 26.49 32.91C26.03 32.45 25.8 31.88 25.8 31.2C25.8 30.52 26.03 29.95 26.49 29.49C26.95 29.03 27.52 28.8 28.2 28.8C28.88 28.8 29.45 29.03 29.91 29.49C30.37 29.95 30.6 30.52 30.6 31.2C30.6 31.88 30.37 32.45 29.91 32.91ZM17.31 25.71C16.85 26.17 16.28 26.4 15.6 26.4C14.92 26.4 14.35 26.17 13.89 25.71C13.43 25.25 13.2 24.68 13.2 24C13.2 23.32 13.43 22.75 13.89 22.29C14.35 21.83 14.92 21.6 15.6 21.6C16.28 21.6 16.85 21.83 17.31 22.29C17.77 22.75 18 23.32 18 24C18 24.68 17.77 25.25 17.31 25.71ZM26.4 24C26.4 24.68 26.17 25.25 25.71 25.71C25.25 26.17 24.68 26.4 24 26.4C23.32 26.4 22.75 26.17 22.29 25.71C21.83 25.25 21.6 24.68 21.6 24C21.6 23.32 21.83 22.75 22.29 22.29C22.75 21.83 23.32 21.6 24 21.6C24.68 21.6 25.25 21.83 25.71 22.29C26.17 22.75 26.4 23.32 26.4 24ZM34.11 25.71C33.65 26.17 33.08 26.4 32.4 26.4C31.72 26.4 31.15 26.17 30.69 25.71C30.23 25.25 30 24.68 30 24C30 23.32 30.23 22.75 30.69 22.29C31.15 21.83 31.72 21.6 32.4 21.6C33.08 21.6 33.65 21.83 34.11 22.29C34.57 22.75 34.8 23.32 34.8 24C34.8 24.68 34.57 25.25 34.11 25.71ZM22.2 16.8C22.2 17.48 21.97 18.05 21.51 18.51C21.05 18.97 20.48 19.2 19.8 19.2C19.12 19.2 18.55 18.97 18.09 18.51C17.63 18.05 17.4 17.48 17.4 16.8C17.4 16.12 17.63 15.55 18.09 15.09C18.55 14.63 19.12 14.4 19.8 14.4C20.48 14.4 21.05 14.63 21.51 15.09C21.97 15.55 22.2 16.12 22.2 16.8ZM29.91 18.51C29.45 18.97 28.88 19.2 28.2 19.2C27.52 19.2 26.95 18.97 26.49 18.51C26.03 18.05 25.8 17.48 25.8 16.8C25.8 16.12 26.03 15.55 26.49 15.09C26.95 14.63 27.52 14.4 28.2 14.4C28.88 14.4 29.45 14.63 29.91 15.09C30.37 15.55 30.6 16.12 30.6 16.8C30.6 17.48 30.37 18.05 29.91 18.51Z" fill="#00779F"/>
<path fill-rule="evenodd" clip-rule="evenodd" d="M24 36C27.32 36 30.15 34.83 32.49 32.49C34.83 30.15 36 27.32 36 24C36 20.68 34.83 17.85 32.49 15.51C30.15 13.17 27.32 12 24 12C20.68 12 17.85 13.17 15.51 15.51C13.17 17.85 12 20.68 12 24C12 27.32 13.17 30.15 15.51 32.49C17.85 34.83 20.68 36 24 36ZM22.2 31.2C22.2 31.88 21.97 32.45 21.51 32.91C21.05 33.37 20.48 33.6 19.8 33.6C19.12 33.6 18.55 33.37 18.09 32.91C17.63 32.45 17.4 31.88 17.4 31.2C17.4 30.52 17.63 29.95 18.09 29.49C18.55 29.03 19.12 28.8 19.8 28.8C20.48 28.8 21.05 29.03 21.51 29.49C21.97 29.95 22.2 30.52 22.2 31.2ZM29.91 32.91C29.45 33.37 28.88 33.6 28.2 33.6C27.52 33.6 26.95 33.37 26.49 32.91C26.03 32.45 25.8 31.88 25.8 31.2C25.8 30.52 26.03 29.95 26.49 29.49C26.95 29.03 27.52 28.8 28.2 28.8C28.88 28.8 29.45 29.03 29.91 29.49C30.37 29.95 30.6 30.52 30.6 31.2C30.6 31.88 30.37 32.45 29.91 32.91ZM17.31 25.71C16.85 26.17 16.28 26.4 15.6 26.4C14.92 26.4 14.35 26.17 13.89 25.71C13.43 25.25 13.2 24.68 13.2 24C13.2 23.32 13.43 22.75 13.89 22.29C14.35 21.83 14.92 21.6 15.6 21.6C16.28 21.6 16.85 21.83 17.31 22.29C17.77 22.75 18 23.32 18 24C18 24.68 17.77 25.25 17.31 25.71ZM26.4 24C26.4 24.68 26.17 25.25 25.71 25.71C25.25 26.17 24.68 26.4 24 26.4C23.32 26.4 22.75 26.17 22.29 25.71C21.83 25.25 21.6 24.68 21.6 24C21.6 23.32 21.83 22.75 22.29 22.29C22.75 21.83 23.32 21.6 24 21.6C24.68 21.6 25.25 21.83 25.71 22.29C26.17 22.75 26.4 23.32 26.4 24ZM34.11 25.71C33.65 26.17 33.08 26.4 32.4 26.4C31.72 26.4 31.15 26.17 30.69 25.71C30.23 25.25 30 24.68 30 24C30 23.32 30.23 22.75 30.69 22.29C31.15 21.83 31.72 21.6 32.4 21.6C33.08 21.6 33.65 21.83 34.11 22.29C34.57 22.75 34.8 23.32 34.8 24C34.8 24.68 34.57 25.25 34.11 25.71ZM22.2 16.8C22.2 17.48 21.97 18.05 21.51 18.51C21.05 18.97 20.48 19.2 19.8 19.2C19.12 19.2 18.55 18.97 18.09 18.51C17.63 18.05 17.4 17.48 17.4 16.8C17.4 16.12 17.63 15.55 18.09 15.09C18.55 14.63 19.12 14.4 19.8 14.4C20.48 14.4 21.05 14.63 21.51 15.09C21.97 15.55 22.2 16.12 22.2 16.8ZM29.91 18.51C29.45 18.97 28.88 19.2 28.2 19.2C27.52 19.2 26.95 18.97 26.49 18.51C26.03 18.05 25.8 17.48 25.8 16.8C25.8 16.12 26.03 15.55 26.49 15.09C26.95 14.63 27.52 14.4 28.2 14.4C28.88 14.4 29.45 14.63 29.91 15.09C30.37 15.55 30.6 16.12 30.6 16.8C30.6 17.48 30.37 18.05 29.91 18.51Z" fill="white"/>
</svg>
