<svg width="29" height="25" viewBox="0 0 29 25" fill="none" xmlns="http://www.w3.org/2000/svg">
<path d="M5.56148 0.43968C5.42218 0.30029 5.25678 0.189715 5.07473 0.114273C4.89268 0.0388304 4.69754 0 4.50048 0C4.30342 0 4.10828 0.0388304 3.92623 0.114273C3.74418 0.189715 3.57878 0.30029 3.43948 0.43968L0.439481 3.43968C0.158086 3.72107 0 4.10273 0 4.50068C0 4.89863 0.158086 5.28029 0.439481 5.56168C0.720875 5.84307 1.10253 6.00116 1.50048 6.00116C1.89843 6.00116 2.28009 5.84307 2.56148 5.56168L3.00048 5.12168V23.5007C3.00048 23.8985 3.15852 24.28 3.43982 24.5613C3.72112 24.8426 4.10266 25.0007 4.50048 25.0007C4.89831 25.0007 5.27984 24.8426 5.56114 24.5613C5.84245 24.28 6.00048 23.8985 6.00048 23.5007V5.12168L6.43948 5.56168C6.72088 5.84307 7.10253 6.00116 7.50048 6.00116C7.89843 6.00116 8.28009 5.84307 8.56148 5.56168C8.84288 5.28029 9.00096 4.89863 9.00096 4.50068C9.00096 4.10273 8.84288 3.72107 8.56148 3.43968L5.56148 0.43968Z" fill="currentColor"/>
<path d="M27.5 1.00073H11.5C11.1022 1.00073 10.7206 1.15877 10.4393 1.44007C10.158 1.72138 10 2.10291 10 2.50073C10 2.89856 10.158 3.28009 10.4393 3.56139C10.7206 3.8427 11.1022 4.00073 11.5 4.00073H27.5C27.8978 4.00073 28.2794 3.8427 28.5607 3.56139C28.842 3.28009 29 2.89856 29 2.50073C29 2.10291 28.842 1.72138 28.5607 1.44007C28.2794 1.15877 27.8978 1.00073 27.5 1.00073Z" fill="currentColor"/>
<path d="M23.5 8.00073H11.5C11.1022 8.00073 10.7206 8.15877 10.4393 8.44007C10.158 8.72138 10 9.10291 10 9.50073C10 9.89856 10.158 10.2801 10.4393 10.5614C10.7206 10.8427 11.1022 11.0007 11.5 11.0007H23.5C23.8978 11.0007 24.2794 10.8427 24.5607 10.5614C24.842 10.2801 25 9.89856 25 9.50073C25 9.10291 24.842 8.72138 24.5607 8.44007C24.2794 8.15877 23.8978 8.00073 23.5 8.00073Z" fill="currentColor"/>
<path d="M19.5 15.0007H11.5C11.1022 15.0007 10.7206 15.1588 10.4393 15.4401C10.158 15.7214 10 16.1029 10 16.5007C10 16.8986 10.158 17.2801 10.4393 17.5614C10.7206 17.8427 11.1022 18.0007 19.5 18.0007C19.8978 18.0007 20.2794 17.8427 20.5607 17.5614C20.842 17.2801 21 16.8986 21 16.5007C21 16.1029 20.842 15.7214 20.5607 15.4401C20.2794 15.1588 19.8978 15.0007 19.5 15.0007Z" fill="currentColor"/>
<path d="M15.5 22.0007H11.5C11.1022 22.0007 10.7206 22.1588 10.4393 22.4401C10.158 22.7214 10 23.1029 10 23.5007C10 23.8986 10.158 24.2801 10.4393 24.5614C10.7206 24.8427 11.1022 25.0007 11.5 25.0007H15.5C15.8978 25.0007 16.2794 24.8427 16.5607 24.5614C16.842 24.2801 17 23.8986 17 23.5007C17 23.1029 16.842 22.7214 16.5607 22.4401C16.2794 22.1588 15.8978 22.0007 15.5 22.0007Z" fill="currentColor"/>
</svg>
