<svg width="20" height="17" viewBox="0 0 20 17" fill="none" xmlns="http://www.w3.org/2000/svg">
<path d="M4.37876 13.2182L4.08025 13.5174V1.01997C4.08025 0.749459 3.97279 0.490025 3.7815 0.298743C3.59022 0.107461 3.33079 0 3.06027 0C2.78975 0 2.53032 0.107461 2.33903 0.298743C2.14775 0.490025 2.04029 0.749459 2.04029 1.01997V13.5174L1.74177 13.2182C1.55043 13.0268 1.29091 12.9193 1.02031 12.9193C0.749705 12.9193 0.490186 13.0268 0.298841 13.2182C0.107496 13.4095 3.49207e-09 13.669 0 13.9396C-3.49207e-09 14.2102 0.107496 14.4697 0.298841 14.6611L2.3388 16.701C2.43353 16.7958 2.546 16.871 2.66979 16.9223C2.79358 16.9736 2.92627 17 3.06027 17C3.19427 17 3.32696 16.9736 3.45075 16.9223C3.57454 16.871 3.68701 16.7958 3.78174 16.701L5.8217 14.6611C6.01304 14.4697 6.12054 14.2102 6.12054 13.9396C6.12054 13.669 6.01304 13.4095 5.8217 13.2182C5.63035 13.0268 5.37083 12.9193 5.10023 12.9193C4.82963 12.9193 4.57011 13.0268 4.37876 13.2182Z" fill="currentColor"/>
<path d="M18.6996 0.679993H7.81979C7.54927 0.679993 7.28983 0.787454 7.09855 0.978735C6.90727 1.17002 6.7998 1.42945 6.7998 1.69996C6.7998 1.97048 6.90727 2.22991 7.09855 2.42119C7.28983 2.61248 7.54927 2.71994 7.81979 2.71994H18.6996C18.9701 2.71994 19.2295 2.61248 19.4208 2.42119C19.6121 2.22991 19.7196 1.97048 19.7196 1.69996C19.7196 1.42945 19.6121 1.17002 19.4208 0.978735C19.2295 0.787454 18.9701 0.679993 18.6996 0.679993Z" fill="currentColor"/>
<path d="M15.9796 5.43988H7.81979C7.54927 5.43988 7.28983 5.54734 7.09855 5.73862C6.90727 5.92991 6.7998 6.18934 6.7998 6.45985C6.7998 6.73037 6.90727 6.9898 7.09855 7.18108C7.28983 7.37236 7.54927 7.47982 15.9796 7.47982C16.2501 7.47982 16.5096 7.37236 16.7009 7.18108C16.8922 6.9898 16.9996 6.73037 16.9996 6.45985C16.9996 6.18934 16.8922 5.92991 16.7009 5.73862C16.5096 5.54734 16.2501 5.43988 15.9796 5.43988Z" fill="currentColor"/>
<path d="M13.2597 10.1997H7.81979C7.54927 10.1997 7.28983 10.3072 7.09855 10.4985C6.90727 10.6897 6.7998 10.9492 6.7998 11.2197C6.7998 11.4902 6.90727 11.7496 7.09855 11.9409C7.28983 12.1322 7.54927 12.2397 13.2597 12.2397C13.5302 12.2397 13.7896 12.1322 13.9809 11.9409C14.1722 11.7496 14.2797 11.4902 14.2797 11.2197C14.2797 10.9492 14.1722 10.6897 13.9809 10.4985C13.7896 10.3072 13.5302 10.1997 13.2597 10.1997Z" fill="currentColor"/>
<path d="M10.5397 14.9597H7.81979C7.54927 14.9597 7.28983 15.0671 7.09855 15.2584C6.90727 15.4497 6.7998 15.7091 6.7998 15.9796C6.7998 16.2501 6.90727 16.5096 7.09855 16.7009C7.28983 16.8921 7.54927 16.9996 10.5397 16.9996C10.8103 16.9996 11.0697 16.8921 11.261 16.7009C11.4523 16.5096 11.5597 16.2501 11.5597 15.9796C11.5597 15.7091 11.4523 15.4497 11.261 15.2584C11.0697 15.0671 10.8103 14.9597 10.5397 14.9597Z" fill="currentColor"/>
</svg>
