<svg width="20" height="20" viewBox="0 0 20 20" fill="none" xmlns="http://www.w3.org/2000/svg">
<path d="M2.14286 17.8571H3.66071L14.8214 6.69643L13.3036 5.17857L2.14286 16.3393V17.8571ZM0 20V15.4464L14.8214 0.625C15.0397 0.406746 15.2762 0.248016 15.531 0.14881C15.7855 0.0496032 16.0534 0 16.3345 0C16.6155 0 16.8849 0.0496032 17.1429 0.14881C17.4008 0.248016 17.6389 0.406746 17.8571 0.625L19.375 2.14286C19.5933 2.36111 19.752 2.59921 19.8512 2.85714C19.9504 3.11508 20 3.37837 20 3.64702C20 3.93373 19.9502 4.20694 19.8506 4.46667C19.751 4.72639 19.5925 4.96369 19.375 5.17857L4.55357 20H0ZM14.0491 5.95089L13.3036 5.17857L14.8214 6.69643L14.0491 5.95089Z" fill="currentColor"/>
</svg>
