<svg width="16" height="16" viewBox="0 0 16 16" fill="none" xmlns="http://www.w3.org/2000/svg">
<path d="M0.727273 0C1.12893 0 1.45455 0.358172 1.45455 0.8V10.882L5.66193 6.11953C5.94691 5.79687 6.41792 5.79631 6.70384 6.11797L8.60298 8.25391C8.90048 8.58851 9.39415 8.57189 9.67259 8.21797L13.7834 2.99297C14.0387 2.66837 14.4876 2.63929 14.7756 2.92891C15.0523 3.2074 15.0775 3.67757 14.8324 3.98984L9.73082 10.4883C9.4519 10.8432 8.9564 10.8591 8.65909 10.5227L6.70312 8.30859C6.41754 7.9854 5.9461 7.9854 5.66051 8.30859L2.19034 12.2375C1.99325 12.4606 1.70299 12.5212 1.45455 12.4211V14.4H15.2727C15.6744 14.4 16 14.7582 16 15.2C16 15.6418 15.6744 16 15.2727 16H1.45455C0.651222 16 0 15.2837 0 14.4V0.8C0 0.358172 0.325611 0 0.727273 0Z" fill="currentColor"/>
</svg>
