<svg width="20" height="20" viewBox="0 0 20 20" fill="none" xmlns="http://www.w3.org/2000/svg">
<path d="M10.013 18.125C10.3342 18.125 10.6554 18.1076 10.9766 18.0729C11.2977 18.0382 11.6146 17.9774 11.9271 17.8906L10.8333 16.25H7.5V15C7.5 14.4844 7.68359 14.043 8.05078 13.6758C8.41797 13.3086 8.85938 13.125 9.375 13.125H11.25V10H10C9.64583 10 9.34896 9.88021 9.10938 9.64063C8.86979 9.40104 8.75 9.10417 8.75 8.75V6.25H7.78646C7.35695 6.25 6.99349 6.10243 6.69609 5.80729C6.3987 5.51215 6.25 5.14531 6.25 4.70677C6.25 4.55503 6.2717 4.40972 6.3151 4.27083C6.35851 4.13194 6.42361 3.99306 6.51042 3.85417L7.57812 2.23958C5.91146 2.74306 4.54427 3.70035 3.47656 5.11146C2.40885 6.52257 1.875 8.15208 1.875 10H3.125V8.75C3.125 8.57292 3.1849 8.42448 3.30469 8.30469C3.42448 8.1849 3.57292 8.125 3.75 8.125H6.25C6.42708 8.125 6.57552 8.1849 6.69531 8.30469C6.8151 8.42448 6.875 8.57292 6.875 8.75V10.625C6.875 10.8021 6.8151 10.9505 6.69531 11.0703C6.57552 11.1901 6.42708 11.25 6.25 11.25H5.625V11.875C5.625 12.3906 5.44141 12.832 5.07422 13.1992C4.70703 13.5664 4.26562 13.75 3.75 13.75H2.8125C3.48958 15.0521 4.46181 16.1068 5.72917 16.9141C6.99653 17.7214 8.42448 18.125 10.013 18.125ZM17.8385 12.0573C17.9253 11.7274 17.9948 11.3889 18.0469 11.0417C18.099 10.6944 18.125 10.3472 18.125 10C18.125 8.17708 17.5955 6.5625 16.5365 5.15625C15.4774 3.75 14.1319 2.78646 12.5 2.26562V5C13.0208 5 13.4635 5.18359 13.8281 5.55078C14.1927 5.91797 14.375 6.35938 14.375 6.875V8.80208C14.6354 8.83681 14.8785 8.91059 15.1042 9.02344C15.3299 9.13628 15.5382 9.28819 15.7292 9.47917L17.8385 12.0573ZM10.0073 20C8.6309 20 7.33507 19.7396 6.11979 19.2188C4.90451 18.6979 3.84115 17.9818 2.92969 17.0703C2.01823 16.1589 1.30208 15.0958 0.78125 13.8813C0.260417 12.6667 0 11.3689 0 9.98802C0 8.60712 0.260417 7.31337 0.78125 6.10677C1.30208 4.90017 2.01823 3.84115 2.92969 2.92969C3.84115 2.01823 4.90417 1.30208 6.11875 0.78125C7.33333 0.260417 8.63108 0 10.012 0C11.3929 0 12.6866 0.260417 13.8932 0.78125C15.0998 1.30208 16.1589 2.01823 17.0703 2.92969C17.9818 3.84115 18.6979 4.90208 19.2188 6.1125C19.7396 7.32309 20 8.61649 20 9.99271C20 11.3691 19.7396 12.6649 19.2188 13.8802C18.6979 15.0955 17.9818 16.1589 17.0703 17.0703C16.1589 17.9818 15.0979 18.6979 13.8875 19.2188C12.6769 19.7396 11.3835 20 10.0073 20Z" fill="currentColor"/>
</svg>
