<svg width="22" height="21" viewBox="0 0 22 21" fill="none" xmlns="http://www.w3.org/2000/svg">
<path d="M17.775 7H15.7C15.2667 5.53333 14.4417 4.33333 13.225 3.4C12.0083 2.46667 10.6 2 9 2C7.05 2 5.39583 2.67917 4.0375 4.0375C2.67917 5.39583 2 7.05 2 9C2 10.2 2.27083 11.3 2.8125 12.3C3.35417 13.3 4.08333 14.1167 5 14.75V12H7V18H1V16H3.35C2.31667 15.1667 1.5 14.1458 0.9 12.9375C0.3 11.7292 0 10.4167 0 9C0 7.75 0.2375 6.57917 0.7125 5.4875C1.1875 4.39583 1.82917 3.44583 2.6375 2.6375C3.44583 1.82917 4.39583 1.1875 5.4875 0.7125C6.57917 0.2375 7.75 0 9 0C11.15 0 13.0375 0.6625 14.6625 1.9875C16.2875 3.3125 17.325 4.98333 17.775 7Z" fill="currentColor"/>
<path d="M20.1798 10H12.02C11.7495 10 11.49 10.1075 11.2987 10.2987C11.1075 10.49 11 10.7495 11 11.02C11 11.2905 11.1075 11.5499 11.2987 11.7412C11.49 11.9325 11.7495 12.0399 12.02 12.0399H20.1798C20.4503 12.0399 20.7098 11.9325 20.9011 11.7412C21.0923 11.5499 21.1998 11.2905 21.1998 11.02C21.1998 10.7495 21.0923 10.49 20.9011 10.2987C20.7098 10.1075 20.4503 10 20.1798 10Z" fill="currentColor"/>
<path d="M17.4599 14.0399H12.02C11.7495 14.0399 11.49 14.1474 11.2987 14.3387C11.1075 14.5299 11 14.7894 11 15.0599C11 15.3304 11.1075 15.5898 11.2987 15.7811C11.49 15.9724 11.7495 16.0799 12.02 16.0799H17.4599C17.7304 16.0799 17.9898 15.9724 18.1811 15.7811C18.3724 15.5898 18.4799 15.3304 18.4799 15.0599C18.4799 14.7894 18.3724 14.5299 18.1811 14.3387C17.9898 14.1474 17.7304 14.0399 17.4599 14.0399Z" fill="currentColor"/>
<path d="M14.7399 18.0798H12.02C11.7495 18.0798 11.49 18.1873 11.2987 18.3786C11.1075 18.5699 11 18.8293 11 19.0998C11 19.3703 11.1075 19.6298 11.2987 19.821C11.49 20.0123 11.7495 20.1198 12.02 20.1198H14.7399C15.0104 20.1198 15.2699 20.0123 15.4612 19.821C15.6524 19.6298 15.7599 19.3703 15.7599 19.0998C15.7599 18.8293 15.6524 18.5699 15.4612 18.3786C15.2699 18.1873 15.0104 18.0798 14.7399 18.0798Z" fill="currentColor"/>
</svg>
