<svg width="16" height="16" viewBox="0 0 16 16" fill="none" xmlns="http://www.w3.org/2000/svg">
<path d="M14.7857 16L9.09524 10.3095C8.61905 10.6587 8.0969 10.9325 7.52881 11.131C6.96071 11.3294 6.35611 11.4286 5.715 11.4286C4.12722 11.4286 2.77778 10.873 1.66667 9.7619C0.555556 8.65079 0 7.30159 0 5.71429C0 4.12698 0.555556 2.77778 1.66667 1.66667C2.77778 0.555556 4.12698 0 5.71429 0C7.30159 0 8.65079 0.555556 9.7619 1.66667C10.873 2.77778 11.4286 4.12722 11.4286 5.715C11.4286 6.35611 11.3294 6.96071 11.131 7.52881C10.9325 8.0969 10.6587 8.61905 10.3095 9.09524L16 14.7857L14.7857 16ZM5.71429 9.71429C6.8254 9.71429 7.76984 9.3254 8.54762 8.54762C9.3254 7.76984 9.71429 6.8254 9.71429 5.71429C9.71429 4.60317 9.3254 3.65873 8.54762 2.88095C7.76984 2.10317 6.8254 1.71429 5.71429 1.71429C4.60317 1.71429 3.65873 2.10317 2.88095 2.88095C2.10317 3.65873 1.71429 4.60317 1.71429 5.71429C1.71429 6.8254 2.10317 7.76984 2.88095 8.54762C3.65873 9.3254 4.60317 9.71429 5.71429 9.71429Z" fill="currentColor"/>
</svg>
